<?xml version="1.0" encoding="UTF-8"?>
<svg id="Capa_2" data-name="Capa 2" xmlns="http://www.w3.org/2000/svg" xmlns:xlink="http://www.w3.org/1999/xlink" viewBox="0 0 123.48 18.94">
  <defs>
    <style>
      .cls-1 {
        fill: none;
      }

      .cls-2 {
        clip-path: url(#clippath-11);
      }

      .cls-3 {
        clip-path: url(#clippath-10);
      }

      .cls-4 {
        clip-path: url(#clippath-1);
      }

      .cls-5 {
        clip-path: url(#clippath-3);
      }

      .cls-6 {
        clip-path: url(#clippath-4);
      }

      .cls-7 {
        clip-path: url(#clippath-2);
      }

      .cls-8 {
        clip-path: url(#clippath-7);
      }

      .cls-9 {
        clip-path: url(#clippath-6);
      }

      .cls-10 {
        clip-path: url(#clippath-9);
      }

      .cls-11 {
        clip-path: url(#clippath-8);
      }

      .cls-12 {
        clip-path: url(#clippath-5);
      }

      .cls-13 {
        fill: #fff;
      }

      .cls-14 {
        clip-path: url(#clippath);
      }
    </style>
    <clipPath id="clippath">
      <rect class="cls-1" x="0" y="0" width="123.48" height="18.94"/>
    </clipPath>
    <clipPath id="clippath-1">
      <rect class="cls-1" x="0" y="0" width="123.48" height="18.94"/>
    </clipPath>
    <clipPath id="clippath-2">
      <rect class="cls-1" x="0" y="0" width="123.48" height="18.94"/>
    </clipPath>
    <clipPath id="clippath-3">
      <rect class="cls-1" x="0" y="0" width="123.48" height="18.94"/>
    </clipPath>
    <clipPath id="clippath-4">
      <rect class="cls-1" x="0" y="0" width="123.48" height="18.94"/>
    </clipPath>
    <clipPath id="clippath-5">
      <rect class="cls-1" x="0" y="0" width="123.48" height="18.94"/>
    </clipPath>
    <clipPath id="clippath-6">
      <rect class="cls-1" x="0" y="0" width="123.48" height="18.94"/>
    </clipPath>
    <clipPath id="clippath-7">
      <rect class="cls-1" x="0" y="0" width="123.48" height="18.94"/>
    </clipPath>
    <clipPath id="clippath-8">
      <rect class="cls-1" x="0" y="0" width="123.48" height="18.94"/>
    </clipPath>
    <clipPath id="clippath-9">
      <rect class="cls-1" x="0" y="0" width="123.48" height="18.94"/>
    </clipPath>
    <clipPath id="clippath-10">
      <rect class="cls-1" x="0" y="0" width="123.48" height="18.94"/>
    </clipPath>
    <clipPath id="clippath-11">
      <rect class="cls-1" x="0" y="0" width="123.48" height="18.94"/>
    </clipPath>
  </defs>
  <g id="Capa_1-2" data-name="Capa 1">
    <g>
      <polygon class="cls-13" points=".6 5.77 .6 11.64 1.53 11.64 1.53 9.36 4.6 9.36 4.6 8.5 1.53 8.5 1.53 6.71 4.75 6.71 4.75 5.77 .6 5.77"/>
      <g class="cls-14">
        <path class="cls-13" d="M6.51,7.49v2.21c0,.34.11.64.3.86.19.23.49.34.82.34.15,0,.34-.04.45-.11.15-.08.26-.15.37-.26s.19-.26.23-.41c.04-.15.07-.3.07-.49v-2.13h.86v4.15h-.79l-.04-.6c-.19.22-.41.41-.64.52-.22.11-.49.15-.79.15-.26,0-.49-.04-.71-.15-.22-.08-.41-.22-.56-.37-.15-.15-.26-.37-.38-.64-.07-.26-.11-.52-.11-.82v-2.21h.9v-.04Z"/>
        <path class="cls-13" d="M13.95,11.64v-2.21c0-.37-.11-.64-.3-.86-.19-.22-.49-.34-.82-.34-.19,0-.34.04-.49.11-.15.07-.26.15-.38.26-.11.11-.19.26-.22.41-.04.15-.07.3-.07.49v2.17h-.86v-4.19h.78l.04.6c.37-.45.86-.67,1.38-.67.26,0,.49.04.71.11.22.07.41.22.56.37.15.15.3.37.37.64s.15.52.15.86v2.21h-.86v.04Z"/>
        <path class="cls-13" d="M17.84,8.24c-.19,0-.37.04-.52.07-.15.07-.3.15-.41.26-.11.11-.22.26-.26.41-.08.15-.11.34-.11.56s.04.41.11.56c.07.15.15.3.26.41.11.11.26.22.41.26.15.04.34.07.52.07s.34-.04.52-.11c.15-.07.3-.15.41-.26.11-.11.22-.26.3-.41.07-.15.11-.34.11-.56,0-.19-.04-.37-.11-.56-.08-.15-.15-.3-.3-.41-.11-.11-.26-.22-.41-.26-.19-.04-.34-.04-.52-.04M20.09,5.77v5.87h-.82l-.04-.64c-.15.26-.37.45-.64.56-.26.11-.52.19-.79.19-.3,0-.6-.04-.82-.15-.22-.11-.49-.22-.67-.41-.19-.19-.34-.41-.45-.67-.11-.26-.15-.56-.15-.9s.04-.67.15-.94.26-.49.45-.67c.19-.19.41-.34.67-.41.26-.07.52-.15.82-.15.11,0,.26,0,.41.04.15.04.3.07.41.15.15.07.26.15.37.22s.19.19.26.34v-2.36h.82v-.08Z"/>
        <path class="cls-13" d="M23.19,8.2c-.19,0-.37.04-.52.11-.15.07-.3.15-.41.26-.11.11-.22.26-.3.41-.07.15-.11.37-.11.56,0,.22.04.41.11.56.08.19.15.3.3.45.11.11.26.22.41.26.15.07.34.11.52.11.3,0,.56-.07.75-.19.19-.11.34-.3.45-.52.11-.19.15-.41.15-.67,0-.22-.04-.45-.15-.67-.11-.19-.26-.37-.45-.52-.19-.07-.45-.15-.75-.15M24.54,8.16l.04-.64h.82v4.11h-.82l-.04-.67c-.08.15-.15.26-.26.34-.11.11-.22.19-.37.22-.15.07-.26.11-.41.15-.15.04-.26.04-.41.04-.3,0-.6-.04-.86-.15-.26-.11-.49-.22-.67-.41-.19-.19-.34-.41-.45-.67-.11-.26-.15-.6-.15-.93s.04-.64.15-.94c.11-.26.26-.49.45-.67.19-.19.41-.34.67-.41.26-.11.52-.15.82-.15s.56.07.82.19c.34.19.56.38.67.6"/>
        <path class="cls-13" d="M30.08,11.12c-.23.22-.49.41-.75.49-.26.11-.52.15-.82.15s-.56-.04-.86-.15c-.26-.07-.49-.22-.71-.41-.19-.19-.34-.41-.49-.67-.11-.26-.19-.6-.19-.94,0-.37.07-.67.19-.94.11-.26.26-.49.49-.67.19-.19.41-.34.67-.41.26-.07.56-.15.86-.15s.56.04.79.15c.22.11.49.26.71.49l-.56.56c-.11-.11-.26-.23-.45-.3-.15-.08-.34-.08-.49-.08-.19,0-.37.04-.52.11-.15.07-.3.15-.41.26-.11.11-.22.26-.3.41-.08.15-.11.34-.11.56s.04.41.11.56c.07.15.15.3.3.41.11.11.26.19.41.26.15.07.34.07.52.07s.34-.04.52-.07c.19-.04.34-.15.45-.3l.64.6Z"/>
        <path class="cls-13" d="M31.72,11.64h-.86v-4.15h.86v4.15ZM30.75,6.29c0-.19.04-.3.15-.41.11-.07.22-.11.37-.11s.26.04.37.11c.11.07.15.22.15.41s-.04.3-.15.41c-.11.07-.23.15-.37.15s-.26-.04-.37-.15c-.11-.11-.15-.22-.15-.41"/>
        <path class="cls-13" d="M35.95,5.77l-.86,1.12h-.79v-.04l.6-1.09h1.05ZM34.75,8.24c-.19,0-.37.04-.52.11-.15.07-.3.19-.41.3-.11.11-.19.26-.26.45-.08.15-.08.34-.08.52s.04.37.08.52c.08.15.15.3.26.41.11.11.22.23.41.3.15.08.34.11.52.11s.37-.04.52-.11c.15-.07.3-.15.41-.3.11-.11.19-.26.26-.41.08-.15.08-.34.08-.52s-.04-.37-.08-.52c-.08-.15-.15-.3-.26-.45-.11-.11-.26-.22-.41-.3-.15-.07-.34-.11-.52-.11M34.75,7.42c.34,0,.6.04.86.15.26.11.49.26.67.45.19.19.34.41.45.67.11.26.15.56.15.86s-.04.6-.15.86c-.11.26-.26.49-.45.67-.19.19-.41.34-.67.45-.26.11-.56.15-.9.15s-.64-.04-.9-.15c-.26-.11-.49-.26-.67-.45-.19-.19-.34-.41-.41-.67-.11-.26-.15-.56-.15-.86s.04-.6.15-.86.26-.49.45-.67c.19-.19.41-.34.67-.45.3-.07.56-.15.9-.15"/>
        <path class="cls-13" d="M40.96,11.64v-2.21c0-.37-.11-.64-.3-.86-.19-.22-.49-.34-.82-.34-.19,0-.34.04-.49.11-.15.07-.26.15-.37.26-.11.11-.19.26-.22.41-.04.15-.08.3-.08.49v2.17h-.86v-4.19h.78l.04.6c.37-.45.86-.67,1.38-.67.26,0,.49.04.71.11.22.07.41.22.56.37.15.15.3.37.37.64s.15.52.15.86v2.21h-.86v.04Z"/>
      </g>
      <polygon class="cls-13" points="49.49 11.64 45.15 11.64 45.15 5.77 49.45 5.77 49.45 6.71 46.08 6.71 46.08 8.28 49.3 8.28 49.3 9.14 46.08 9.14 46.08 10.71 49.49 10.71 49.49 11.64"/>
      <g class="cls-4">
        <path class="cls-13" d="M53.19,8.54c-.15-.15-.34-.26-.52-.3-.19-.04-.37-.07-.56-.07-.26,0-.49.04-.64.11-.15.07-.22.22-.22.37,0,.19.08.3.26.37.15.08.37.11.64.15.19,0,.37.04.6.07.22.04.41.11.56.19.19.07.3.22.41.37.11.15.15.37.15.64,0,.19-.04.37-.11.52-.08.15-.19.3-.37.41-.15.11-.34.19-.56.26-.23.08-.45.11-.71.11-.34,0-.67-.04-.97-.15-.34-.11-.64-.3-.9-.6l.45-.6c.19.22.41.37.67.45.26.07.52.15.75.15.11,0,.19,0,.3-.04.11-.04.19-.04.3-.07.07-.04.15-.11.22-.19.04-.07.08-.15.08-.26,0-.19-.08-.34-.22-.41-.15-.07-.41-.15-.71-.19-.19,0-.37-.04-.6-.11-.19-.04-.37-.11-.52-.22-.15-.07-.3-.23-.41-.38-.11-.15-.15-.34-.15-.56s.04-.41.15-.6c.11-.15.22-.3.41-.37.15-.11.34-.19.56-.23.19-.04.41-.07.6-.07.34,0,.6.04.86.11.26.07.49.22.75.45l-.52.67Z"/>
        <path class="cls-13" d="M56.07,6.33v1.2h1.2v.75h-1.2v1.94c0,.22.04.37.15.49.11.11.26.19.45.19.07,0,.19,0,.26-.04.08-.04.19-.07.26-.11l.26.75c-.15.07-.3.11-.41.15-.11.04-.26.04-.41.04-.45,0-.78-.11-1.05-.34-.23-.26-.37-.6-.37-1.12v-1.98h-.79v-.75h.79v-1.12l.86-.04Z"/>
        <path class="cls-13" d="M60.11,8.2c-.19,0-.37.04-.52.11-.15.07-.3.15-.41.26-.11.11-.22.26-.3.41-.07.15-.11.37-.11.56,0,.22.04.41.11.56.08.19.15.3.3.45.11.11.26.22.41.26.15.07.34.11.52.11.3,0,.56-.07.75-.19.19-.11.34-.3.45-.52.11-.19.15-.41.15-.67,0-.22-.04-.45-.15-.67-.11-.19-.26-.37-.45-.52-.23-.07-.49-.15-.75-.15M61.42,8.16l.04-.64h.82v4.11h-.82l-.04-.67c-.08.15-.15.26-.26.34-.11.11-.22.19-.37.22-.15.07-.26.11-.41.15-.15.04-.26.04-.41.04-.3,0-.6-.04-.86-.15-.26-.11-.49-.22-.67-.41-.19-.19-.34-.41-.45-.67-.11-.26-.15-.6-.15-.93s.04-.64.15-.94c.11-.26.26-.49.45-.67.19-.19.41-.34.67-.41.26-.11.52-.15.82-.15s.56.07.82.19c.37.19.56.38.67.6"/>
        <path class="cls-13" d="M64.83,6.33v1.2h1.2v.75h-1.2v1.94c0,.22.04.37.15.49.11.11.26.19.45.19.07,0,.19,0,.26-.04.08-.04.19-.07.26-.11l.26.75c-.15.07-.3.11-.41.15-.11.04-.26.04-.41.04-.45,0-.79-.11-1.05-.34-.23-.26-.37-.6-.37-1.12v-1.98h-.79v-.75h.79v-1.12l.86-.04Z"/>
        <path class="cls-13" d="M68.83,8.2c-.19,0-.37.04-.52.11-.15.07-.3.15-.41.26-.11.11-.22.26-.3.41-.08.15-.11.37-.11.56,0,.22.04.41.11.56.07.19.15.3.3.45.11.11.26.22.41.26.15.04.34.11.52.11.3,0,.56-.07.75-.19.19-.15.34-.3.45-.52.11-.19.15-.41.15-.67,0-.22-.04-.45-.15-.67-.11-.19-.26-.37-.45-.52-.19-.07-.45-.15-.75-.15M70.17,8.16l.04-.64h.82v4.11h-.82l-.04-.67c-.08.15-.15.26-.26.34-.11.11-.22.19-.37.22-.15.07-.26.11-.41.15-.15.04-.26.04-.41.04-.3,0-.6-.04-.86-.15-.26-.11-.49-.22-.67-.41-.19-.19-.34-.41-.45-.67-.11-.26-.15-.6-.15-.93s.04-.64.15-.94c.11-.26.26-.49.45-.67.19-.19.41-.34.67-.41.26-.11.52-.15.82-.15s.56.07.82.19c.37.19.56.38.67.6"/>
      </g>
      <rect class="cls-13" x="72.23" y="5.77" width=".9" height="5.87"/>
      <g class="cls-7">
        <path class="cls-13" d="M.67,17.18h.82c.11,0,.22-.04.34-.07.08-.04.15-.11.22-.23.08-.08.08-.19.11-.26v-.26c0-.08-.07-.15-.15-.22-.11-.08-.19-.08-.34-.08h-.82l-.19,1.12ZM.6,17.59l-.15.82h-.45l.49-2.73h1.27c.22,0,.37.04.52.15.15.11.23.22.26.34.04.15.08.3.04.45-.04.15-.08.3-.19.45-.11.15-.23.26-.38.34-.15.11-.34.15-.56.15h-.86v.04Z"/>
      </g>
      <path class="cls-13" d="M4.34,16.13l.34,1.31h-1.16l.82-1.31ZM4.15,15.68l-1.72,2.73h.49l.37-.56h1.5l.15.6h.45l-.75-2.77h-.49Z"/>
      <g class="cls-5">
        <path class="cls-13" d="M6.62,16.06l-.19,1.01h.82c.11,0,.19,0,.26-.04.07-.04.15-.08.19-.11.04-.04.07-.11.11-.19.04-.08.04-.15.04-.22,0-.04,0-.11-.04-.15,0-.04-.04-.11-.07-.15-.04-.04-.08-.08-.15-.11,0,0-.07-.04-.15-.04h-.82ZM8.12,18.41h-.52l-.67-.93h-.6l-.19.93h-.45l.49-2.77h1.27c.15,0,.26.04.37.07.11.04.19.11.26.19.07.08.11.15.15.26.04.07.04.19.04.3s0,.22-.04.34c-.04.11-.07.22-.15.3-.07.08-.15.19-.3.22-.11.08-.26.11-.41.15l.67.9.08.04Z"/>
      </g>
      <path class="cls-13" d="M10.21,16.13l.34,1.31h-1.16l.82-1.31ZM10.03,15.65l-1.72,2.77h.49l.38-.56h1.49l.15.56h.45l-.75-2.77h-.49Z"/>
      <polygon class="cls-13" points="13.09 15.65 12.61 18.41 14.51 18.41 14.59 18 13.13 18 13.54 15.68 13.54 15.65 13.09 15.65"/>
      <path class="cls-13" d="M16.53,16.13l.34,1.31h-1.16l.82-1.31ZM16.35,15.65l-1.72,2.77h.45l.37-.56h1.5l.19.56h.45l-.75-2.77h-.49Z"/>
      <polygon class="cls-13" points="19.41 15.65 18.93 18.41 19.38 18.41 19.56 17.33 20.99 17.33 21.06 16.92 19.64 16.92 19.79 16.06 21.28 16.06 21.36 15.65 19.41 15.65"/>
      <g class="cls-6">
        <path class="cls-13" d="M21.92,17.22c0,.11,0,.22.04.3.04.11.07.19.15.26.07.07.15.15.26.19.11.04.22.07.37.07.19,0,.37-.04.52-.11.15-.08.26-.15.37-.26.11-.11.19-.22.23-.37.04-.15.08-.3.08-.41s0-.22-.04-.3c-.04-.08-.08-.19-.15-.26-.08-.08-.15-.15-.26-.19-.11-.04-.23-.08-.37-.08-.19,0-.34.04-.49.11-.15.08-.26.15-.37.26-.11.11-.19.22-.22.37-.04.15-.11.26-.11.41M23.15,15.61c.19,0,.37.04.52.11.15.07.26.15.37.26s.19.22.22.37c.04.15.07.3.07.45,0,.22-.04.41-.11.6-.08.19-.19.37-.3.52-.15.15-.3.3-.52.37-.23.11-.45.15-.71.15-.22,0-.37-.04-.52-.11-.15-.08-.26-.15-.37-.26-.11-.11-.19-.23-.22-.37-.04-.15-.08-.3-.08-.45,0-.23.04-.45.11-.67.07-.19.19-.38.37-.52.15-.15.34-.26.52-.37.19-.04.37-.08.64-.08"/>
        <path class="cls-13" d="M25.47,16.06l-.19,1.01h.82c.11,0,.19,0,.26-.04.08-.04.15-.08.19-.11.04-.04.07-.11.11-.19.04-.08.04-.15.04-.22,0-.04,0-.11-.04-.15,0-.04-.04-.11-.07-.15-.04-.04-.08-.08-.15-.11-.08-.04-.11-.04-.19-.04h-.78ZM26.97,18.41h-.52l-.67-.93h-.6l-.19.93h-.45l.49-2.77h1.27c.15,0,.26.04.37.07.11.04.19.11.26.19.07.08.11.15.15.26.04.07.04.19.04.3s0,.22-.04.34c-.04.11-.08.22-.15.3-.08.08-.15.19-.3.22-.11.08-.26.11-.41.15l.67.9.08.04Z"/>
      </g>
      <polygon class="cls-13" points="30.22 15.65 29.1 16.92 28.43 15.65 27.91 15.65 27.42 18.41 27.87 18.41 28.24 16.32 28.95 17.63 29.07 17.63 30.22 16.32 29.81 18.41 30.26 18.41 30.75 15.65 30.22 15.65"/>
      <path class="cls-13" d="M32.58,16.13l.34,1.31h-1.16l.82-1.31ZM32.39,15.65l-1.72,2.77h.49l.37-.56h1.5l.15.56h.45l-.75-2.77h-.49Z"/>
      <g class="cls-12">
        <path class="cls-13" d="M36.4,18.08c-.08.08-.19.15-.26.19s-.19.07-.26.11c-.08.04-.19.04-.26.07-.11,0-.19.04-.3.04-.22,0-.41-.04-.56-.11-.15-.07-.3-.15-.37-.26-.08-.11-.19-.22-.22-.37-.04-.15-.07-.3-.07-.45,0-.19.04-.41.11-.6.08-.19.19-.37.34-.52.15-.15.34-.3.56-.37.22-.08.45-.15.75-.15.19,0,.34.04.52.11.15.08.3.15.41.3l-.34.3c-.07-.11-.19-.19-.3-.22-.11-.04-.22-.08-.37-.08-.19,0-.34.04-.49.08-.15.08-.26.15-.37.22-.11.11-.19.19-.22.34-.04.15-.11.26-.11.37s-.04.26,0,.37c0,.11.07.23.11.34.04.11.15.19.26.22.11.04.26.07.45.07.11,0,.26-.04.41-.07.15-.04.26-.11.38-.22l.22.3Z"/>
      </g>
      <polygon class="cls-13" points="37.26 15.65 36.77 18.41 37.22 18.41 37.71 15.65 37.26 15.65"/>
      <g class="cls-9">
        <path class="cls-13" d="M40.32,14.82l-.49.52h-.37v-.04l.37-.52.49.04ZM38.38,17.22c0,.11,0,.22.04.3.04.11.08.19.15.26.07.07.15.15.26.19.11.04.23.07.38.07.19,0,.37-.04.52-.11.15-.08.26-.15.37-.26.11-.11.19-.22.23-.37.04-.15.08-.3.08-.45,0-.11,0-.22-.04-.3-.04-.11-.08-.19-.15-.26-.08-.08-.15-.15-.26-.19-.11-.04-.22-.08-.37-.08-.19,0-.34.04-.49.11-.15.07-.26.15-.37.26-.11.11-.19.22-.22.37-.04.15-.11.3-.11.45M39.61,15.61c.19,0,.37.04.52.11.15.07.26.15.37.26s.19.22.22.37c.04.15.08.3.08.45,0,.22-.04.41-.11.6-.08.19-.19.37-.3.52-.15.15-.3.3-.52.37-.22.11-.45.15-.71.15-.22,0-.37-.04-.52-.11-.15-.08-.26-.15-.37-.26-.11-.11-.19-.23-.22-.37-.04-.15-.08-.3-.08-.45,0-.23.04-.45.11-.67.07-.19.19-.38.37-.52.15-.15.34-.26.52-.37.19-.04.41-.08.64-.08"/>
      </g>
      <polygon class="cls-13" points="43.47 15.68 43.13 17.7 41.9 15.68 41.56 15.68 41.11 18.45 41.56 18.45 41.9 16.43 43.09 18.45 43.43 18.45 43.91 15.68 43.47 15.68"/>
      <g class="cls-8">
        <path class="cls-13" d="M47.13,18.41h-2.02c.07-.45.15-.93.22-1.38.08-.45.15-.9.22-1.38h1.94l-.07.41h-1.5l-.15.75h1.42l-.07.41h-1.42l-.15.75h1.61l-.04.45Z"/>
      </g>
      <polygon class="cls-13" points="50.05 15.68 49.71 17.7 48.52 15.68 48.18 15.68 47.69 18.45 48.14 18.45 48.48 16.43 49.68 18.45 50.01 18.45 50.5 15.68 50.05 15.68"/>
      <g class="cls-11">
        <path class="cls-13" d="M53.72,18.41h-2.02c.07-.45.15-.93.22-1.38.08-.45.15-.9.22-1.38h1.94l-.07.41h-1.5l-.15.75h1.42l-.07.41h-1.42l-.15.75h1.61l-.04.45Z"/>
      </g>
      <polygon class="cls-13" points="54.69 15.68 54.2 18.45 56.11 18.45 56.19 18.04 54.73 18.04 55.14 15.68 54.69 15.68"/>
      <g class="cls-10">
        <path class="cls-13" d="M59.55,18.41h-2.02c.07-.45.15-.93.22-1.38.08-.45.15-.9.22-1.38h1.94l-.07.41h-1.5l-.15.75h1.42l-.07.41h-1.42l-.15.75h1.61l-.04.45Z"/>
      </g>
      <polygon class="cls-13" points="62.84 15.65 61.72 16.92 61.05 15.65 60.52 15.65 60.04 18.41 60.49 18.41 60.86 16.32 61.57 17.63 61.68 17.63 62.84 16.32 62.43 18.41 62.88 18.41 63.37 15.65 62.84 15.65"/>
      <g class="cls-3">
        <path class="cls-13" d="M64.26,17.18h.82c.11,0,.22-.04.34-.07.08-.04.15-.11.23-.23.07-.08.07-.19.11-.26v-.26c-.04-.08-.08-.15-.15-.22-.07-.04-.19-.08-.3-.08h-.82l-.22,1.12ZM64.19,17.59l-.15.82h-.45l.49-2.77h1.27c.22,0,.37.04.52.15.11.11.22.23.26.34.04.11.07.3.04.45-.04.15-.07.3-.19.45-.11.15-.22.26-.38.34-.15.11-.34.15-.56.15h-.86v.07Z"/>
      </g>
      <polygon class="cls-13" points="66.81 15.68 66.32 18.45 68.23 18.45 68.3 18.04 66.85 18.04 67.26 15.68 66.81 15.68"/>
      <g class="cls-2">
        <path class="cls-13" d="M70.66,18.41h-2.02c.07-.45.15-.93.22-1.38.08-.45.15-.9.22-1.38h1.94l-.07.41h-1.5l-.15.75h1.42l-.07.41h-1.42l-.15.75h1.61l-.04.45Z"/>
        <path class="cls-13" d="M71.67,17.22c0,.11,0,.22.04.3.04.11.08.19.15.26.07.07.15.15.26.19.11.04.22.07.37.07.19,0,.37-.04.52-.11.15-.08.26-.15.37-.26.11-.11.19-.22.23-.37.04-.15.07-.3.07-.41s0-.22-.04-.3c-.04-.08-.07-.19-.15-.26-.08-.08-.15-.15-.26-.19-.11-.04-.22-.08-.37-.08-.19,0-.34.04-.49.11-.15.08-.26.15-.37.26-.11.11-.19.22-.22.37-.04.15-.11.26-.11.41M72.91,15.61c.19,0,.37.04.52.11.15.07.26.15.37.26s.19.22.22.37c.04.15.08.3.08.45,0,.22-.04.41-.11.6-.08.19-.19.37-.3.52-.15.15-.3.3-.52.37-.22.11-.45.15-.71.15-.22,0-.37-.04-.52-.11-.15-.08-.26-.15-.37-.26-.11-.11-.19-.23-.22-.37-.04-.15-.07-.3-.07-.45,0-.23.04-.45.11-.67.07-.22.19-.38.37-.52.15-.15.34-.26.52-.37.19-.04.41-.08.64-.08"/>
        <path class="cls-13" d="M113.34.12c-2.13.34-4.23.93-6.66,2.32-1.68.97-3.4,2.06-5.24,3.37-.6-.64-1.16-1.2-1.68-1.76-.26-.26-.52-.37-.93-.49-.08,0-.11,0-.19-.04-.07,0-.15-.04-.22-.04-.41,0-.93.11-1.53.3-.41.15-.79.3-1.2.49-.6.3-1.23.64-1.91,1.12-.41.26-.82.56-1.23.94-1.2.97-2.36,1.98-3.55,3.14-.04-.6-.11-1.16-.11-1.72-.04-.67-.41-.75-1.12-.45-.79.37-1.68,1.01-2.77,2.21-1.08,1.12-1.98,2.36-2.77,3.85-.82,1.46-1.2,2.77-1.35,3.89-.15,1.2.07,1.76.71,1.68.6-.07,1.38-.9,2.58-2.47.97-1.23,1.94-2.39,2.99-3.55.08.9.15,1.83.3,2.84.04.41.15.79.3,1.12v.04c.19.37.37.6.67.78.26.15.64.19,1.08.19.37-.08.79-.19,1.2-.37.64-.34,1.35-.82,2.17-1.53.52-.41,1.01-.9,1.57-1.46,1.68-1.68,3.33-3.18,5.09-4.64.71,1.08,1.5,2.28,2.39,3.63,1.35,2.02,3.44,3.14,6.47,3.1,1.8-.04,3.59-.41,5.39-1.12,1.83-.75,3.55-1.76,5.16-3.07,3.25-2.69,4.56-5.2,4.53-7.48-.04-2.21-1.35-3.37-3.44-4.23-1.01-.37-2.02-.6-3.14-.67-.37-.04-.71-.04-1.08-.04-.82-.04-1.61.04-2.47.11M112.56,1.99c1.65-.23,2.92-.08,4.04.45,1.2.6,1.72,1.42,1.53,2.77-.19,1.38-1.08,2.65-2.84,4.08-1.76,1.35-3.67,2.13-5.76,2.32-1.68.15-3.03-.37-4-1.38-1.01-1.12-1.91-2.06-2.77-2.95,1.91-1.38,3.67-2.58,5.42-3.67v.04c1.61-.97,2.99-1.46,4.38-1.64M95.42,5.84c.75-.26,1.31-.15,1.61.3.41.64.82,1.27,1.31,2.06-1.57,1.23-3.03,2.58-4.56,4.04-1.2,1.16-2.13,1.8-2.92,1.98h-.07c-.41.07-.67,0-.86-.15-.22-.19-.34-.45-.41-.82-.15-.9-.3-1.65-.37-2.43,1.16-1.2,2.36-2.21,3.55-3.25.3-.26.64-.49.9-.71.34-.26.67-.45,1.01-.6.3-.15.52-.26.79-.34h.04s-.04-.04,0-.07c-.04.04,0,0,0,0M82.14,15.38c.11-.64.34-1.42.86-2.32.49-.93,1.09-1.65,1.72-2.43.67-.71,1.23-1.16,1.68-1.38.41-.19.64-.07.6.37v1.87c-.97,1.01-1.91,2.06-2.81,3.22-.71.9-1.23,1.38-1.61,1.5-.08,0-.11.04-.15.04-.3,0-.37-.3-.3-.86"/>
      </g>
    </g>
  </g>
</svg>